<?xml version="1.0" encoding="iso-8859-1"?>
<!-- Generator: Adobe Illustrator 16.0.0, SVG Export Plug-In . SVG Version: 6.00 Build 0)  -->
<!DOCTYPE svg PUBLIC "-//W3C//DTD SVG 1.1//EN" "http://www.w3.org/Graphics/SVG/1.1/DTD/svg11.dtd">
<svg version="1.1" id="Capa_1" xmlns="http://www.w3.org/2000/svg" xmlns:xlink="http://www.w3.org/1999/xlink" x="0px" y="0px"
	 width="468.935px" height="468.935px" viewBox="0 0 468.935 468.935" style="enable-background:new 0 0 468.935 468.935;"
	 xml:space="preserve">
<g>
	<g id="Layer_8_6_">
		<path d="M452.996,170.987h-44.073c-7.382-15.951-17.691-34.011-31.185-48.646h36.021c1.458,7.294,7.887,12.797,15.619,12.797
			l6.43,7.812V71.67l-6.43,5.573c-8.801,0-15.94,7.127-15.94,15.938v0.476H308.27v0.06c-14.659-0.184-26.418-0.2-35.683-0.128
			c-2.768-4.689-7.857-7.839-13.702-7.839H116.54c-8.799,0-15.932,7.133-15.932,15.937v14.87c0,8.797,7.127,15.929,15.932,15.929
			H258.88c6.785,0,12.563-4.247,14.853-10.219c11.468-0.085,26.833-0.028,47.036,0.331c23.738,0.413,42.924,23.792,56.198,48.399
			H166.191c-8.797,0-15.936,7.136-15.936,15.938v42.859h-37.475c-1.289-5.951-6.586-10.405-12.922-10.405H56.252
			c-0.525-8.326-7.422-14.928-15.885-14.928H15.938C7.141,204.462,0,211.595,0,220.399v8.764h18.588
			c7.851,0,14.361,5.68,15.678,13.146v75.131c-1.312,7.475-7.823,13.166-15.678,13.166H0v17.264c0,8.795,7.135,15.935,15.938,15.935
			h24.429c7.952,0,14.521-5.827,15.724-13.434h43.773c6.417,0,11.757-4.557,12.966-10.627h37.432v41.581
			c0,8.8,7.132,15.94,15.934,15.94h286.8c8.797,0,15.939-7.13,15.939-15.94v-194.4C468.935,178.12,461.792,170.987,452.996,170.987z
			 M222.363,182.94h9.554v18.72h-9.554V182.94z M222.363,210.423h9.554v18.725h-9.554V210.423z M186.908,367.377
			c-6.822,0-12.345-5.527-12.345-12.346c0-6.828,5.523-12.355,12.345-12.355c6.824,0,12.348,5.527,12.348,12.355
			C199.255,361.839,193.725,367.377,186.908,367.377z M222.123,367.377c-6.824,0-12.35-5.527-12.35-12.346
			c0-6.828,5.526-12.355,12.35-12.355c6.82,0,12.345,5.527,12.345,12.355C234.467,361.839,228.943,367.377,222.123,367.377z
			 M249.449,229.148h-9.567v-18.725h9.567V229.148z M249.449,201.654h-9.567v-18.719h9.567V201.654z M444.492,358.742
			c0,8.793-7.124,15.937-15.935,15.937H275.605c-8.796,0-15.937-7.13-15.937-15.937v-63.213c0-8.794,7.126-15.934,15.937-15.934
			h152.967c8.796,0,15.935,7.13,15.935,15.934v63.213H444.492z M437.47,208.429h-31.068c-5.5,0-9.955-4.459-9.955-9.957
			c0-5.497,4.455-9.959,9.955-9.959h31.068c5.487,0,9.955,4.462,9.955,9.959C447.425,203.97,442.958,208.429,437.47,208.429z
			 M439.413,300.435v53.82c0,8.525-6.915,15.442-15.44,15.442H280.316c-8.521,0-15.439-6.906-15.439-15.442v-53.82
			c0-8.521,6.906-15.433,15.439-15.433h143.656C432.498,285.002,439.413,291.923,439.413,300.435z M194.117,355.011
			c0,3.95-3.205,7.156-7.167,7.156c-3.962,0-7.17-3.206-7.17-7.156c0-3.963,3.208-7.169,7.17-7.169
			C190.912,347.842,194.117,351.048,194.117,355.011z M229.414,354.89c0,3.956-3.212,7.158-7.167,7.158
			c-3.962,0-7.167-3.202-7.167-7.158c0-3.962,3.205-7.166,7.167-7.166C226.197,347.724,229.414,350.928,229.414,354.89z"/>
	</g>
</g>
<g>
</g>
<g>
</g>
<g>
</g>
<g>
</g>
<g>
</g>
<g>
</g>
<g>
</g>
<g>
</g>
<g>
</g>
<g>
</g>
<g>
</g>
<g>
</g>
<g>
</g>
<g>
</g>
<g>
</g>
</svg>
