<?xml version="1.0" encoding="utf-8"?>
<!-- Generator: Adobe Illustrator 19.0.0, SVG Export Plug-In . SVG Version: 6.00 Build 0)  -->
<svg version="1.1" id="レイヤー_1" xmlns="http://www.w3.org/2000/svg" xmlns:xlink="http://www.w3.org/1999/xlink" x="0px"
	 y="0px" viewBox="-96.7 344 679.7 113.3" style="enable-background:new -96.7 344 679.7 113.3;" xml:space="preserve">
<style type="text/css">
	.st0{fill:#FFFFFF;}
</style>
<g>
	<g>
		<path class="st0" d="M-0.9,358L-0.9,358L-0.9,358z"/>
		<path class="st0" d="M-58.2,457.3L-58.2,457.3L-58.2,457.3z"/>
		<path class="st0" d="M-70.4,381.3c8.6,0,16.9,3,23.5,8.4l7.7-2.8c-3.3-16.3-17.7-28.1-34.4-28.1c-0.5,0-1,0-1.5,0l-17.2,29.7
			C-86.1,383.9-78.4,381.3-70.4,381.3L-70.4,381.3z"/>
		<path class="st0" d="M-28.5,390.7l4.1,7.1c13.9-5,23.2-18.2,23.2-33.1c0-2-0.2-4.1-0.5-6.1l-32.7-11.9
			c6.8,6.9,10.6,16.1,10.6,25.9C-23.8,379-25.4,385.2-28.5,390.7z"/>
		<path class="st0" d="M-37.6,386.9l7.7,2.8c2.9-5.2,4.4-11,4.4-17c0-10.6-4.7-20.5-13-27.3L-71,357.2
			C-54.5,358.4-40.7,370.5-37.6,386.9z"/>
		<path class="st0" d="M-24,399.5l-1.4,8c4.1,1.7,8.5,2.5,13,2.5l0,0c12.5,0,24.1-6.7,30.4-17.6L0.5,362.1c0.1,0.8,0.1,1.7,0.1,2.5
			C0.6,380.4-9.3,394.4-24,399.5z"/>
		<path class="st0" d="M-12.4,411.8L-12.4,411.8c-4.8,0-9.4-0.9-13.8-2.7l-6.3,5.3c6.1,11.7,18,19,31.2,19l0,0
			c4.4,0,8.6-0.8,12.6-2.3l6.1-34.4C10.5,406.1-0.6,411.8-12.4,411.8z"/>
		<path class="st0" d="M-1.3,435.2c-14,0-26.5-7.7-32.8-20.1h-8.2c-0.6,2.5-0.9,5.1-0.9,7.8c0,7.7,2.4,15,7.1,21.2
			c4.4,5.8,10.6,10.2,17.5,12.4l26.7-22.4C5,434.7,1.9,435.2-1.3,435.2L-1.3,435.2z"/>
		<path class="st0" d="M-37.5,445c-4.9-6.4-7.4-14.1-7.4-22.2c0-2.8,0.3-5.6,0.9-8.3l-6.2-5.2c-8.6,6.7-13.5,16.7-13.5,27.6
			c0,7,2.1,13.7,5.9,19.5h34.5C-28.8,453.9-33.8,450-37.5,445z"/>
		<path class="st0" d="M-51.2,407.8l-1.4-8c-0.1,0-0.2,0-0.3,0c-8.8,0-17.3,3.3-23.8,9.3c-6.4,5.8-10.3,13.8-11.2,22.3l26.2,22
			c-2.5-5.1-3.9-10.7-3.9-16.5C-65.4,425.4-60.3,414.8-51.2,407.8z"/>
		<path class="st0" d="M-77.9,407.7c6.8-6.3,15.7-9.7,25-9.7c0.2,0,0.4,0,0.5,0l4.1-7c-6.2-5.1-14.1-7.9-22.2-7.9l0,0
			c-9.1,0-17.7,3.5-24.3,9.7l5.9,33.7C-87.1,419.3-83.3,412.8-77.9,407.7z"/>
	</g>
	<g>
		<path class="st0" d="M37.5,430.3c1,1.4,2.3,2.7,3.8,3.9c1.5,1.2,3.3,2.1,5.3,2.8c2,0.7,4.3,1.1,6.8,1.1c2.6,0,4.9-0.4,6.9-1.3
			c2.1-0.9,3.8-2.1,5.2-3.6s2.5-3.3,3.3-5.3s1.2-4.2,1.2-6.5c0-3.5-0.9-6.4-2.7-8.4c-1.8-2.1-4.1-3.8-6.8-5.2
			c-2.7-1.4-5.7-2.7-8.8-3.8c-3.1-1.2-6.1-2.6-8.8-4.3c-2.7-1.7-5-4-6.8-6.7s-2.7-6.3-2.7-10.9c0-3.2,0.6-6.2,1.7-8.9
			c1.2-2.7,2.9-5,5.1-6.9c2.2-1.9,4.9-3.4,8-4.5s6.6-1.6,10.5-1.6c3.7,0,7,0.4,9.7,1.3s5.2,2.3,7.6,4.1c-0.7,1.3-1.3,2.7-1.7,4.2
			c-0.5,1.5-0.9,3.3-1.4,5.6h-1.4c-0.4-1.1-0.9-2.3-1.6-3.5c-0.7-1.3-1.6-2.4-2.7-3.5c-1.1-1.1-2.5-2-4-2.7
			c-1.6-0.7-3.4-1.1-5.6-1.1c-2.2,0-4.2,0.3-6,1s-3.4,1.7-4.8,3c-1.4,1.3-2.4,2.8-3.1,4.6c-0.7,1.8-1.1,3.7-1.1,5.8
			c0,3.6,0.9,6.5,2.7,8.6s4.1,3.8,6.8,5.3c2.7,1.4,5.7,2.7,8.8,3.8c3.1,1.1,6.1,2.5,8.8,4.1s5,3.7,6.8,6.3c1.8,2.5,2.7,5.9,2.7,10.2
			c0,3.6-0.6,6.9-1.9,10.1c-1.3,3.2-3.1,5.9-5.6,8.3c-2.4,2.4-5.4,4.2-9,5.4c-3.5,1.3-7.6,1.9-12.1,1.9c-4.8,0-8.7-0.6-11.7-1.9
			s-5.5-2.7-7.5-4.3c0.7-1.8,1.2-3.4,1.5-4.8s0.5-3.3,0.8-5.5h1.4C35.7,427.5,36.5,428.9,37.5,430.3z"/>
		<path class="st0" d="M92.1,384c2.1-5.1,5.1-9.5,9-13c3.8-3.5,8.4-6.3,13.8-8.1c5.4-1.9,11.2-2.8,17.6-2.8s12.4,0.9,17.7,2.8
			c5.4,1.9,10,4.6,13.8,8.1c3.8,3.6,6.8,7.9,9,13c2.1,5.1,3.2,11,3.2,17.5c0,6.6-1.1,12.4-3.2,17.5s-5.1,9.5-9,13
			c-3.8,3.6-8.4,6.2-13.8,7.9c-5.4,1.7-11.3,2.6-17.7,2.6c-6.4,0-12.2-0.9-17.6-2.6s-10-4.4-13.8-7.9s-6.8-7.9-9-13
			c-2.1-5.1-3.2-11-3.2-17.5S90,389.1,92.1,384z M162.3,384.9c-1.6-4.7-3.9-8.5-6.8-11.6c-2.9-3-6.3-5.3-10.3-6.8
			c-3.9-1.5-8.2-2.2-12.8-2.2c-4.5,0-8.7,0.7-12.6,2.2s-7.3,3.7-10.3,6.8c-2.9,3-5.2,6.9-6.8,11.6c-1.6,4.7-2.4,10.2-2.4,16.6
			s0.8,11.9,2.4,16.6s3.9,8.5,6.8,11.6c2.9,3,6.3,5.3,10.3,6.8c3.9,1.5,8.1,2.2,12.6,2.2c4.6,0,8.8-0.7,12.8-2.2
			c3.9-1.5,7.3-3.7,10.3-6.8c2.9-3,5.2-6.9,6.8-11.6c1.6-4.7,2.4-10.2,2.4-16.6C164.8,395.1,163.9,389.6,162.3,384.9z"/>
		<path class="st0" d="M188.6,376.6c-0.2-4.9-0.4-9.9-0.6-15c2.3,0.2,4.5,0.3,6.6,0.4c2.2,0.1,4.4,0.2,6.6,0.2
			c2.3,0,4.5-0.1,6.6-0.3c2.2-0.2,4.4-0.3,6.6-0.3c3.3,0,6.4,0.3,9.3,0.9c3,0.6,5.5,1.6,7.8,3.1c2.2,1.4,4,3.3,5.2,5.6
			c1.3,2.3,1.9,5.2,1.9,8.7c0,3.7-0.8,6.9-2.5,9.5c-1.7,2.7-3.7,4.9-6.1,6.6s-5,3.1-7.8,4.1s-5.3,1.6-7.5,1.9
			c0.9,1.2,2.2,2.8,3.8,4.9c1.6,2.1,3.5,4.4,5.5,6.9s4.1,5.1,6.3,7.9c2.2,2.7,4.3,5.4,6.3,7.9s3.9,4.8,5.7,6.9
			c1.8,2.1,3.2,3.7,4.3,4.7c-1.2-0.2-2.3-0.2-3.5-0.2s-2.3,0-3.5,0c-1.1,0-2.2,0-3.4,0c-1.2,0-2.3,0.1-3.4,0.2
			c-1.2-1.6-2.9-4.1-5.3-7.3c-2.4-3.2-5-6.7-7.9-10.4c-2.9-3.7-5.8-7.4-8.8-11.1s-5.7-6.8-8.2-9.3h-4.4v8.4c0,5.1,0.1,10.1,0.3,15
			c0.2,4.9,0.4,9.8,0.6,14.6c-1.8-0.2-3.7-0.2-5.7-0.2s-3.9,0.1-5.7,0.2c0.2-4.8,0.4-9.6,0.6-14.6c0.2-4.9,0.3-10,0.3-15v-19.9
			C188.9,386.5,188.8,381.5,188.6,376.6z M202,398.6c1.3,0.1,2.7,0.1,4.3,0.1c2.4,0,4.9-0.3,7.5-0.8s5-1.5,7.2-2.8s4-3.2,5.4-5.4
			c1.4-2.3,2.2-5.2,2.2-8.6c0-3-0.6-5.5-1.7-7.5s-2.6-3.5-4.4-4.7s-3.7-1.9-5.8-2.4c-2.1-0.4-4.2-0.6-6.2-0.6c-2.7,0-5,0.1-6.8,0.2
			s-3.3,0.3-4.5,0.4c-0.2,4.2-0.3,8.5-0.5,12.6c-0.2,4.2-0.2,8.3-0.2,12.5v6.6C199.5,398.4,200.7,398.6,202,398.6z"/>
		<path class="st0" d="M327.9,441.1c-1.1-0.2-2.1-0.2-3.1-0.2s-2,0-3.1,0s-2.1,0-3.1,0s-2,0.1-3.1,0.2c-0.5-1.8-1.3-3.9-2.2-6.4
			c-0.9-2.5-2-5.1-3.1-7.9c-1.1-2.7-2.3-5.5-3.4-8.3c-1.2-2.8-2.3-5.5-3.3-8c-2.5-0.1-5-0.1-7.6-0.2c-2.6,0-5.1-0.1-7.7-0.1
			c-2.4,0-4.8,0-7.1,0.1c-2.3,0-4.7,0.1-7.1,0.2c-2.5,6-4.7,11.7-6.8,17.2c-2,5.4-3.5,9.9-4.5,13.5c-1.3-0.2-2.8-0.2-4.3-0.2
			c-1.6,0-3,0.1-4.3,0.2c6.3-13.5,12.4-26.9,18.4-40.3c6-13.3,12-26.9,18.1-40.7h2.2c1.9,4.5,3.9,9.3,6.1,14.5s4.4,10.5,6.6,15.8
			c2.3,5.3,4.5,10.6,6.8,15.9c2.3,5.2,4.4,10.1,6.4,14.6s3.8,8.5,5.4,12.1C325.6,436.6,326.9,439.3,327.9,441.1z M276.3,405.1
			c2,0,4.1,0,6.3,0.1c2.2,0.1,4.3,0.1,6.3,0.1c2.2,0,4.4,0,6.5-0.1c2.2,0,4.4-0.1,6.5-0.2L289,375.7L276.3,405.1z"/>
		<path class="st0" d="M393.4,438.4c-1.5,0.7-3.3,1.4-5.5,2c-2.1,0.6-4.5,1.1-7.2,1.6c-2.6,0.5-5.4,0.7-8.3,0.7
			c-6.1,0-11.8-0.9-17-2.6s-9.7-4.4-13.5-7.9s-6.7-7.9-8.9-13c-2.1-5.1-3.2-11-3.2-17.5c0-6.6,1.1-12.4,3.2-17.5s5.1-9.5,9-13
			c3.8-3.5,8.4-6.3,13.8-8.1c5.4-1.9,11.3-2.8,17.7-2.8c5.1,0,9.8,0.5,14,1.6c4.2,1,8,2.3,11.2,3.8c-0.6,1.1-1.1,2.5-1.5,4.4
			s-0.7,3.4-0.9,4.6l-0.7,0.2c-0.8-0.9-1.9-2-3.3-3.1c-1.4-1.2-3-2.3-4.9-3.4s-4-2-6.3-2.7s-4.9-1.1-7.7-1.1
			c-4.6,0-8.8,0.7-12.8,2.2c-3.9,1.5-7.3,3.7-10.3,6.8c-2.9,3-5.2,6.9-6.8,11.6s-2.4,10.2-2.4,16.6s0.8,11.9,2.4,16.6
			c1.6,4.7,3.9,8.5,6.8,11.6c2.9,3,6.3,5.3,10.3,6.8c3.9,1.5,8.2,2.2,12.8,2.2c2.8,0,5.4-0.3,7.8-1c2.4-0.7,4.5-1.5,6.5-2.5
			s3.8-2,5.4-3.1c1.6-1.1,2.9-2.1,4-3l0.5,0.5l-1,6.8C396,437,394.9,437.7,393.4,438.4z"/>
		<path class="st0" d="M479.1,441.1c-1.1-0.2-2.1-0.2-3.1-0.2s-2,0-3.1,0s-2.1,0-3.1,0s-2,0.1-3.1,0.2c-0.5-1.8-1.3-3.9-2.2-6.4
			s-2-5.1-3.1-7.9c-1.1-2.7-2.3-5.5-3.4-8.3c-1.2-2.8-2.3-5.5-3.3-8c-2.5-0.1-5-0.1-7.6-0.2c-2.6,0-5.1-0.1-7.7-0.1
			c-2.4,0-4.8,0-7.1,0.1c-2.3,0-4.7,0.1-7.1,0.2c-2.5,6-4.7,11.7-6.8,17.2c-2,5.4-3.5,9.9-4.5,13.5c-1.3-0.2-2.8-0.2-4.3-0.2
			c-1.6,0-3,0.1-4.3,0.2c6.3-13.5,12.4-26.9,18.4-40.3c6-13.3,12-26.9,18.1-40.7h2.2c1.9,4.5,3.9,9.3,6.1,14.5
			c2.2,5.2,4.4,10.5,6.6,15.8c2.3,5.3,4.5,10.6,6.8,15.9c2.3,5.2,4.4,10.1,6.4,14.6s3.8,8.5,5.4,12.1
			C476.8,436.6,478.1,439.3,479.1,441.1z M427.4,405.1c2,0,4.1,0,6.3,0.1s4.3,0.1,6.3,0.1c2.2,0,4.4,0,6.5-0.1
			c2.2,0,4.4-0.1,6.5-0.2l-12.8-29.3L427.4,405.1z"/>
		<path class="st0" d="M517.7,392c5.5,10.3,11.2,21,17.2,31.8c0.8-1.5,1.9-3.6,3.4-6.3c1.5-2.7,3.2-5.9,5.1-9.4
			c1.9-3.5,4-7.4,6.2-11.5s4.5-8.3,6.8-12.6c2.3-4.2,4.6-8.4,6.8-12.5c2.3-4.1,4.4-7.9,6.3-11.5h1.5c0.9,7.4,1.6,14.6,2.4,21.5
			c0.7,6.9,1.5,13.7,2.3,20.4c0.8,6.7,1.6,13.3,2.3,19.8c0.8,6.5,1.6,13,2.6,19.4c-0.9-0.2-1.8-0.2-2.7-0.2s-1.8,0-2.7,0
			s-1.8,0-2.7,0s-1.8,0.1-2.7,0.2c-0.9-10.3-1.7-20.2-2.6-29.9c-0.9-9.6-1.9-19.5-3.1-29.5h-0.2c-5.4,9.7-10.6,19.4-15.8,29
			s-10.1,19.7-14.7,30.2h-1c-4.7-9.7-9.5-19.5-14.6-29.2c-5.1-9.8-10.2-19.7-15.3-29.9h-0.2c-0.5,4.8-1.1,10-1.8,15.6
			s-1.3,11.1-1.8,16.6c-0.5,5.4-1,10.6-1.4,15.4s-0.6,8.8-0.6,11.9c-1.2-0.2-2.6-0.2-4.1-0.2s-2.8,0.1-4.1,0.2
			c1-6.3,2.1-12.8,3.1-19.8c1.1-6.9,2.1-13.9,3.1-21c1-7,1.9-13.9,2.8-20.8c0.9-6.8,1.6-13.3,2.2-19.5h2
			C506.8,371,512.2,381.7,517.7,392z"/>
	</g>
</g>
</svg>
