<?xml version="1.0" encoding="utf-8"?>
<!-- Generator: Adobe Illustrator 18.1.1, SVG Export Plug-In . SVG Version: 6.00 Build 0)  -->
<svg version="1.1" id="レイヤー_1" xmlns="http://www.w3.org/2000/svg" xmlns:xlink="http://www.w3.org/1999/xlink" x="0px"
	 y="0px" viewBox="0 0 290 290" enable-background="new 0 0 290 290" xml:space="preserve">
<circle fill="none" stroke="#666666" stroke-width="5" stroke-miterlimit="10" cx="149.9" cy="145" r="111.4"/>
<polygon fill="#666666" points="206.8,91.4 94.3,91.4 101.1,76 200.4,76 "/>
<path fill="none" stroke="#666666" stroke-width="4" stroke-miterlimit="10" d="M102.5,127.2"/>
<polyline fill="none" stroke="#666666" stroke-width="4" stroke-miterlimit="10" points="102.5,127.2 102.5,89.9 199.4,89.9 
	199.4,128 "/>
<polyline fill="none" stroke="#666666" stroke-width="4" stroke-miterlimit="10" points="201.6,132.4 201.6,217.3 100,217.3 
	100,129.6 "/>
<rect x="109" y="178.7" fill="none" stroke="#666666" stroke-width="2" stroke-miterlimit="10" width="37.1" height="38.7"/>
<line fill="none" stroke="#666666" stroke-width="2" stroke-miterlimit="10" x1="127.1" y1="178.7" x2="127.1" y2="217.3"/>
<path fill="#666666" d="M91.6,124.7c0,0-1,15.3-7.7,16.3v2.7h11.6v-19H91.6z"/>
<path fill="#666666" d="M208.2,124.7c0,0,1,15.3,7.7,16.3v2.7h-11.6v-19H208.2z"/>
<rect x="100" y="157.7" fill="#666666" width="101.6" height="5.3"/>
<rect x="109" y="160.3" fill="none" stroke="#666666" stroke-width="2" stroke-miterlimit="10" width="37.1" height="18.2"/>
<rect x="153.3" y="165.3" fill="none" stroke="#666666" stroke-width="2" stroke-miterlimit="10" width="41.1" height="32.7"/>
<rect x="153.3" y="173.5" fill="none" stroke="#666666" stroke-miterlimit="10" width="41.1" height="0"/>
<rect x="153.3" y="177.3" fill="none" stroke="#666666" stroke-miterlimit="10" width="41.1" height="0.1"/>
<rect x="153.3" y="187.4" fill="none" stroke="#666666" stroke-miterlimit="10" width="41.1" height="0"/>
<rect x="153.3" y="191.2" fill="none" stroke="#666666" stroke-miterlimit="10" width="41.1" height="0.1"/>
<line fill="none" stroke="#666666" stroke-miterlimit="10" x1="155.9" y1="198" x2="156.2" y2="165.3"/>
<line fill="none" stroke="#666666" stroke-miterlimit="10" x1="159.4" y1="197.7" x2="159.4" y2="165"/>
<line fill="none" stroke="#666666" stroke-miterlimit="10" x1="162.8" y1="198" x2="162.8" y2="165.3"/>
<line fill="none" stroke="#666666" stroke-miterlimit="10" x1="165.7" y1="198" x2="165.7" y2="165.3"/>
<line fill="none" stroke="#666666" stroke-miterlimit="10" x1="168.6" y1="198" x2="168.6" y2="165.3"/>
<line fill="none" stroke="#666666" stroke-miterlimit="10" x1="171.6" y1="198" x2="171.6" y2="165.3"/>
<line fill="none" stroke="#666666" stroke-miterlimit="10" x1="174.5" y1="198" x2="174.5" y2="165.3"/>
<line fill="none" stroke="#666666" stroke-miterlimit="10" x1="177.4" y1="198" x2="177.4" y2="165.3"/>
<line fill="none" stroke="#666666" stroke-miterlimit="10" x1="180.4" y1="198" x2="180.4" y2="165.3"/>
<line fill="none" stroke="#666666" stroke-miterlimit="10" x1="183.3" y1="198" x2="183.3" y2="165.3"/>
<line fill="none" stroke="#666666" stroke-miterlimit="10" x1="186.2" y1="198" x2="186.2" y2="165.3"/>
<line fill="none" stroke="#666666" stroke-miterlimit="10" x1="189.2" y1="198" x2="189.2" y2="165.3"/>
<line fill="none" stroke="#666666" stroke-miterlimit="10" x1="192.1" y1="198" x2="192.1" y2="165.3"/>
<rect x="111" y="165" fill="none" stroke="#666666" stroke-miterlimit="10" width="32.3" height="10.5"/>
<line fill="none" stroke="#666666" stroke-miterlimit="10" x1="111" y1="181.7" x2="111" y2="195"/>
<line fill="none" stroke="#666666" stroke-miterlimit="10" x1="111" y1="181.7" x2="111" y2="195"/>
<line fill="none" stroke="#666666" stroke-miterlimit="10" x1="113.4" y1="181.7" x2="113.4" y2="195"/>
<line fill="none" stroke="#666666" stroke-miterlimit="10" x1="115.7" y1="181.7" x2="115.7" y2="195"/>
<line fill="none" stroke="#666666" stroke-miterlimit="10" x1="118.1" y1="181.7" x2="118.1" y2="195"/>
<line fill="none" stroke="#666666" stroke-miterlimit="10" x1="120.5" y1="181.7" x2="120.5" y2="195"/>
<line fill="none" stroke="#666666" stroke-miterlimit="10" x1="122.9" y1="181.7" x2="122.9" y2="195"/>
<line fill="none" stroke="#666666" stroke-miterlimit="10" x1="125.3" y1="181.7" x2="125.3" y2="195"/>
<line fill="none" stroke="#666666" stroke-miterlimit="10" x1="111" y1="200" x2="111" y2="213.3"/>
<line fill="none" stroke="#666666" stroke-miterlimit="10" x1="111" y1="200" x2="111" y2="213.3"/>
<line fill="none" stroke="#666666" stroke-miterlimit="10" x1="113.4" y1="200" x2="113.4" y2="213.3"/>
<line fill="none" stroke="#666666" stroke-miterlimit="10" x1="115.7" y1="200" x2="115.7" y2="213.3"/>
<line fill="none" stroke="#666666" stroke-miterlimit="10" x1="118.1" y1="200" x2="118.1" y2="213.3"/>
<line fill="none" stroke="#666666" stroke-miterlimit="10" x1="120.5" y1="200" x2="120.5" y2="213.3"/>
<line fill="none" stroke="#666666" stroke-miterlimit="10" x1="122.9" y1="200" x2="122.9" y2="213.3"/>
<line fill="none" stroke="#666666" stroke-miterlimit="10" x1="125.3" y1="200" x2="125.3" y2="213.3"/>
<line fill="none" stroke="#666666" stroke-miterlimit="10" x1="129.2" y1="181.7" x2="129.2" y2="195"/>
<line fill="none" stroke="#666666" stroke-miterlimit="10" x1="129.2" y1="181.7" x2="129.2" y2="195"/>
<line fill="none" stroke="#666666" stroke-miterlimit="10" x1="131.5" y1="181.7" x2="131.5" y2="195"/>
<line fill="none" stroke="#666666" stroke-miterlimit="10" x1="133.9" y1="181.7" x2="133.9" y2="195"/>
<line fill="none" stroke="#666666" stroke-miterlimit="10" x1="136.3" y1="181.7" x2="136.3" y2="195"/>
<line fill="none" stroke="#666666" stroke-miterlimit="10" x1="138.7" y1="181.7" x2="138.7" y2="195"/>
<line fill="none" stroke="#666666" stroke-miterlimit="10" x1="141.1" y1="181.7" x2="141.1" y2="195"/>
<line fill="none" stroke="#666666" stroke-miterlimit="10" x1="143.5" y1="181.7" x2="143.5" y2="195"/>
<line fill="none" stroke="#666666" stroke-miterlimit="10" x1="129.2" y1="200" x2="129.2" y2="213.3"/>
<line fill="none" stroke="#666666" stroke-miterlimit="10" x1="129.2" y1="200" x2="129.2" y2="213.3"/>
<line fill="none" stroke="#666666" stroke-miterlimit="10" x1="131.5" y1="200" x2="131.5" y2="213.3"/>
<line fill="none" stroke="#666666" stroke-miterlimit="10" x1="133.9" y1="200" x2="133.9" y2="213.3"/>
<line fill="none" stroke="#666666" stroke-miterlimit="10" x1="136.3" y1="200" x2="136.3" y2="213.3"/>
<line fill="none" stroke="#666666" stroke-miterlimit="10" x1="138.7" y1="200" x2="138.7" y2="213.3"/>
<line fill="none" stroke="#666666" stroke-miterlimit="10" x1="141.1" y1="200" x2="141.1" y2="213.3"/>
<line fill="none" stroke="#666666" stroke-miterlimit="10" x1="143.5" y1="200" x2="143.5" y2="213.3"/>
<line fill="none" stroke="#666666" stroke-miterlimit="10" x1="102" y1="96.7" x2="198.9" y2="96.7"/>
<line fill="none" stroke="#666666" stroke-miterlimit="10" x1="101.3" y1="102.7" x2="198.2" y2="102.7"/>
<line fill="none" stroke="#666666" stroke-miterlimit="10" x1="102.5" y1="108.9" x2="199.4" y2="108.9"/>
<line fill="none" stroke="#666666" stroke-miterlimit="10" x1="102.5" y1="114.3" x2="199.4" y2="114.3"/>
<line fill="none" stroke="#666666" stroke-miterlimit="10" x1="102.5" y1="120" x2="199.4" y2="120"/>
<rect x="113.4" y="96.7" fill="#FFFFFF" stroke="#666666" stroke-width="2" stroke-miterlimit="10" width="20.9" height="29.5"/>
<rect x="167.4" y="96.7" fill="#FFFFFF" stroke="#666666" stroke-width="2" stroke-miterlimit="10" width="20.7" height="29.5"/>
<line fill="none" stroke="#666666" stroke-miterlimit="10" x1="113.4" y1="105.7" x2="134.2" y2="105.7"/>
<line fill="none" stroke="#666666" stroke-miterlimit="10" x1="113.4" y1="116" x2="134.2" y2="116"/>
<line fill="none" stroke="#666666" stroke-miterlimit="10" x1="123.8" y1="96.7" x2="123.8" y2="126.2"/>
<line fill="none" stroke="#666666" stroke-miterlimit="10" x1="167.4" y1="105.7" x2="188.2" y2="105.7"/>
<line fill="none" stroke="#666666" stroke-miterlimit="10" x1="167.4" y1="116" x2="188.2" y2="116"/>
<line fill="none" stroke="#666666" stroke-miterlimit="10" x1="177.8" y1="96.7" x2="177.8" y2="128"/>
<polygon fill="#666666" points="206.4,143.7 94.5,143.7 94.5,124.7 96.8,124.7 206.4,124.7 "/>
<line fill="none" stroke="#666666" stroke-width="5" stroke-miterlimit="10" x1="118.1" y1="143.7" x2="118.1" y2="160.3"/>
<line fill="none" stroke="#666666" stroke-width="5" stroke-miterlimit="10" x1="148.4" y1="142.3" x2="148.4" y2="157.7"/>
<line fill="none" stroke="#666666" stroke-width="5" stroke-miterlimit="10" x1="180.4" y1="142.3" x2="180.4" y2="160.3"/>
</svg>
